<?xml version="1.0" encoding="UTF-8"?>
<svg xmlns="http://www.w3.org/2000/svg" width="48" height="48" viewBox="0 0 48 48">
  <!-- Background circle in primary green -->
  <circle cx="24" cy="24" r="22" fill="#006455" stroke="white" stroke-width="1"/>
  
  <!-- Logo design in mustard color - larger and moved down -->
  <g transform="translate(6, 10) scale(0.85)">
    <path fill="#FFD700" d="M0.32 27.59c1.44,0.2 3.59,-0.88 4.81,-1.8 1.72,-1.29 8.17,-9.46 9.57,-9.74 0.41,0.85 -0.45,2.34 -0.06,3.35 1.9,-0.38 4.15,-4.21 5.54,-4.1 0.56,0.29 -0.38,3.8 0.24,5.3 0.63,-0.33 5.42,-2.88 6.2,-2.58 0.37,0.15 0.36,0.06 0.33,0.63 -0.01,0.15 -0.2,0.86 -0.22,0.97 -0.12,0.56 -0.05,0.49 -0.25,0.94 -0.34,0.79 -1.4,3.87 -1.17,4.56 1.62,0.26 3.15,-1.13 5.1,-0.5 -0.04,1.79 -2.82,3.92 -4,5.34 0.47,1.22 3.08,1.74 4.72,2.21 1.72,0.49 3.27,1.14 5.47,0.09 0.96,-0.46 1.75,-1.12 2.23,-1.78 3.67,-5.15 -2.08,-8.22 -1.76,-11.22 0.21,-1.94 0.96,-4.26 1.34,-8.01 0.52,-5.09 -2.51,-9.94 -7.44,-11.06 -9.01,-2.05 -21.43,11.94 -26.48,17.81 -2.77,3.21 -2.92,3.15 -4.14,6.75 -0.23,0.69 -0.63,1.96 -0.03,2.83z"/>
  </g>
</svg> 